<svg xmlns="http://www.w3.org/2000/svg" viewBox="0 0 841.9 595.3" fill="#61DAFB">
  <g id="React">
    <path d="M666.3 296.5c0-32.5-40.7-63.3-103.1-82.4 14.4-63.6 8-114.2-20.2-130.4-6.5-3.8-14.1-5.6-22.4-5.6v17.2c7.9-.4 15.3.9 22.2 4.5 10.5 5.5 18.7 18.1 20.8 42.6 26.1 3.4 53.2 12.6 79.9 28.8v-.2c-19-5.3-38.7-8.4-58.5-8.5-19.7 0-39.3 3.1-58.3 8.5v-.2c26.8-16.4 53.8-25.6 80.2-28.9 2.2-24.4 10.3-37.1 20.7-42.6 7-3.6 14.5-5 22.6-4.8v-17.2c-8.4 0-16.1 1.8-22.6 5.6-28.1 16.2-34.4 66.7-19.9 130.1-62.2 19.2-102.7 49.9-102.7 82.3 0 32.5 40.7 63.3 102.7 82.4-14.4 63.6-8 114.2 20.2 130.4 6.5 3.8 14.1 5.6 22.4 5.6 8.4 0 16.1-1.8 22.6-5.6 28.1-16.2 34.4-66.7 19.9-130.1 62-19.1 102.5-49.9 102.5-82.3zm-130.2-66.7c-3.7 12.9-8.3 26.2-13.5 39.5-4.1-8-8.4-16-13.1-24-4.6-8-9.5-15.8-14.4-23.4 14.2 2.1 27.9 4.7 41 7.9zm-45.8 106.5c-7.8 13.5-15.8 26.3-24.1 38.2-14.9 1.3-30 2-45.2 2-15.1 0-30.2-.7-45-1.9-8.3-11.9-16.4-24.6-24.2-38-7.6-13.1-14.5-26.4-20.8-39.8 6.2-13.4 13.2-26.8 20.7-39.9 7.8-13.5 15.8-26.3 24.1-38.2 14.9-1.3 30-2 45.2-2 15.1 0 30.2.7 45 1.9 8.3 11.9 16.4 24.6 24.2 38 7.6 13.1 14.5 26.4 20.8 39.8-6.3 13.4-13.2 26.8-20.7 39.9zm32.3-13c5.4 13.4 10 26.8 13.8 39.8-13.1 3.2-26.9 5.9-41.2 8 4.9-7.7 9.8-15.6 14.4-23.7 4.6-8 8.9-16.1 13-24.1zM421.2 430c-9.3-9.6-18.6-20.3-27.8-32 9 .4 18.2.7 27.5.7 9.4 0 18.7-.2 27.8-.7-9 11.7-18.3 22.4-27.5 32zm-74.4-58.9c-14.2-2.1-27.9-4.7-41-7.9 3.7-12.9 8.3-26.2 13.5-39.5 4.1 8 8.4 16 13.1 24 4.7 8 9.5 15.8 14.4 23.4zM420.7 163c9.3 9.6 18.6 20.3 27.8 32-9-.4-18.2-.7-27.5-.7-9.4 0-18.7.2-27.8.7 9-11.7 18.3-22.4 27.5-32zm-74 58.9c-4.9 7.7-9.8 15.6-14.4 23.7-4.6 8-8.9 16-13 24-5.4-13.4-10-26.8-13.8-39.8 13.1-3.1 26.9-5.8 41.2-7.9zm-90.5 125.2c-35.4-15.1-58.3-34.9-58.3-50.6 0-15.7 22.9-35.6 58.3-50.6 8.6-3.7 18-7 27.7-10.1 5.7 19.6 13.2 40 22.5 60.9-9.2 20.8-16.6 41.1-22.2 60.6-9.9-3.1-19.3-6.5-28-10.2zM310 490c-13.6-7.8-26.5-16.1-38.5-25-8.9 15-17.1 30.2-24.5 45.6-8.3 3.5-16.6 6.8-25 10-5.6-19.3-11.1-39.1-16.6-59.4 5.6 15.6 12.1 31.2 19.6 46.7-13.1 13.1-25.8 25.8-38.1 38.2-6.3 6.4-12.3 12.6-18.2 18.4-42.8 1-86.6 6.5-85.4 16.9 1.2 10.3 45 16.6 85.2 16.3 33.4-2.7 67.5-10.4 81.7-14.2 12.8-3.4 25.1-7.2 37.6-11.2-7.9-8.1-15.6-16.4-23-24.7zM241.3 208c7.8-15 17.1-30.2 24.5-45.6 8.3-3.5 16.6-6.8 24.9-10 5.6 19.3 11.1 39.1 16.6 59.4-5.6-15.6-12.1-31.2-19.6-46.7 13.1-13.1 25.8-25.8 38.1-38.2 6.3-6.4 12.3-12.6 18.2-18.4 42.8-1 86.6-6.5 85.4-16.9-1.2-10.3-45-16.6-85.2-16.3-33.4 2.7-67.5 10.4-81.7 14.2-12.8 3.4-25.1 7.2-37.6 11.2 7.8 8.1 15.6 16.4 23 24.7 13.6 7.8 26.5 16.1 38.5 25 8.9-15 17.1-30.2 24.5-45.6 8.3-3.5 16.6-6.8 25-10-5.6 19.3-11.1 39.1-16.6 59.4-5.6-15.6-12.1-31.2-19.6-46.7 13.1-13.1 25.8-25.8 38.1-38.2 6.3-6.4 12.3-12.6 18.2-18.4 42.8-1 86.6-6.5 85.4-16.9-1.2-10.3-45-16.6-85.2-16.3-33.4 2.7-67.5 10.4-81.7 14.2-12.8 3.4-25.1 7.2-37.6 11.2 7.8 8.1 15.6 16.4 23 24.7-13.6 7.8-26.5 16.1-38.5 25-8.9 15-17.1 30.2-24.5 45.6-8.3 3.5-16.6 6.8-24.9 10 5.6-19.3 11.1-39.1 16.6-59.4 5.6 15.6 12.1 31.2 19.6 46.7-13.1 13.1-25.8 25.8-38.1 38.2-6.3 6.4-12.3 12.6-18.2 18.4-42.8 1-86.6 6.5-85.4 16.9 1.2 10.3 45 16.6 85.2 16.3 33.4-2.7 67.5-10.4 81.7-14.2 12.8-3.4 25.1-7.2 37.6-11.2-7.9-8.1-15.6-16.4-23-24.7zm-30.5 39.6c-42.8 1-86.6 6.5-85.4 16.9 1.2 10.3 45 16.6 85.2 16.3 33.4-2.7 67.5-10.4 81.7-14.2 12.8-3.4 25.1-7.2 37.6-11.2-7.8-8.1-15.6-16.4-23-24.7-13.6-7.8-26.5-16.1-38.5-25-8.9 15-17.1 30.2-24.5 45.6-8.3 3.5-16.6 6.8-24.9 10 5.6-19.3 11.1-39.1 16.6-59.4 5.6 15.6 12.1 31.2 19.6 46.7-13.1 13.1-25.8 25.8-38.1 38.2s-12.3 12.6-18.2 18.4zm519.3-159.3c-3.7 12.9-8.3 26.2-13.5 39.5-4.1-8-8.4-16-13.1-24-4.6-8-9.5-15.8-14.4-23.4 14.2 2.1 27.9 4.7 41 7.9zm-45.8 106.5c-7.8 13.5-15.8 26.3-24.1 38.2-14.9 1.3-30 2-45.2 2-15.1 0-30.2-.7-45-1.9-8.3-11.9-16.4-24.6-24.2-38-7.6-13.1-14.5-26.4-20.8-39.8 6.2-13.4 13.2-26.8 20.7-39.9 7.8-13.5 15.8-26.3 24.1-38.2 14.9-1.3 30-2 45.2-2 15.1 0 30.2.7 45 1.9 8.3 11.9 16.4 24.6 24.2 38 7.6 13.1 14.5 26.4 20.8 39.8-6.3 13.4-13.2 26.8-20.7 39.9zm32.3-13c5.4 13.4 10 26.8 13.8 39.8-13.1 3.2-26.9 5.9-41.2 8 4.9-7.7 9.8-15.6 14.4-23.7 4.6-8 8.9-16.1 13-24.1zM421.2 430c-9.3-9.6-18.6-20.3-27.8-32 9 .4 18.2.7 27.5.7 9.4 0 18.7-.2 27.8-.7-9 11.7-18.3 22.4-27.5 32zm-74.4-58.9c-14.2-2.1-27.9-4.7-41-7.9 3.7-12.9 8.3-26.2 13.5-39.5 4.1 8 8.4 16 13.1 24 4.7 8 9.5 15.8 14.4 23.4zM420.7 163c9.3 9.6 18.6 20.3 27.8 32-9-.4-18.2-.7-27.5-.7-9.4 0-18.7.2-27.8.7 9-11.7 18.3-22.4 27.5-32z"/>
  </g>
</svg>
